<svg xmlns="http://www.w3.org/2000/svg" viewBox="0 0 179.74 200.1"><defs><style>.cls-1{fill:#58a4b0;}.cls-2{fill:none;stroke:#58a4b0;stroke-miterlimit:10;stroke-width:1.25px;}.cls-3{fill:#fff;}</style></defs><g id="Layer_2" data-name="Layer 2"><g id="Layer_1-2" data-name="Layer 1"><g id="Group_29" data-name="Group 29"><path id="Path_28" data-name="Path 28" class="cls-1" d="M65.42,20.71c.73-1.59,8-16.62,23.1-20a27.84,27.84,0,0,1,12.32,0c12.71,3,18.84,14.69,20,16.94,8.88,16.9,1.77,34.81,0,38.5-2.66,5.51-9.72,16.93-21.56,20A26.39,26.39,0,0,1,82.36,74.6C65.6,67,56.45,40,65.42,20.71Z"/><path id="Path_29" data-name="Path 29" class="cls-2" d="M80.82,96.16A23,23,0,0,1,83.9,85.38c1.92-3.24,4.11-4.94,9.24-9.24,0,0,5.1-4.27,10.78-9.24C110.65,61,119.76,48,117.77,33c-1.87-14.16-12.64-22.22-13.85-23.1A30.38,30.38,0,0,0,87,3.77,29.72,29.72,0,0,0,70,8.39,31.36,31.36,0,0,0,59.26,20.71a32.47,32.47,0,0,0-4.62,15.4c-.18,7,2.24,12.1,4.62,16.94C65.05,64.83,73.65,71.82,80,76.91c6.72,5.35,9.22,5.78,13.86,9.24A9.9,9.9,0,0,0,97,87.69c1.33.4,3.18,1,4.62,0a4.62,4.62,0,0,0,1.54-4.62c-.47-2.34-2.69-4-4.62-4.62-5.46-1.8-13.5,2.93-16.94,7.7a11.29,11.29,0,0,1-3.08,3.08,8.91,8.91,0,0,1-6.16,1.54c-.91-.14-2.41-.38-3.08-1.54a4.1,4.1,0,0,1,0-3.08c.2-.76,1.54-3.08,7.7-4.62,1.52-.38,8.5-.1,9.24,0,.91.12,1.54,0,1.54,4.62,0,2.21,0,9.24,4.62,13.86"/><path id="Path_30" data-name="Path 30" class="cls-2" d="M86.21,83.07S82,90.94,84.67,112.33c1.54,12.32,9.16,25,6.16,40-7.7,38.5-1.54,40-1.54,47.74"/><g id="Group_28" data-name="Group 28"><path id="Path_31" data-name="Path 31" class="cls-3" d="M108.31,48.26a41.81,41.81,0,0,0,2.12-6.62l0,0c.34-3.52.38-8.73-1.8-12.23-.89-1.7-1.87-3.4-2.87-5-.48-.77-1.1-1.5-1.7-2.32-2.39-3.82-6.94-6.53-10.6-7.93l0,0-.44-.16-.59-.13-.5-.13-.58-.13a31.23,31.23,0,0,0-4.92-.43l-3.77.17a2.36,2.36,0,0,1-1.88-.7c-.67-1.08.89-5.49,1-5.82a3.59,3.59,0,0,1,1.24-1.27c2.18-1.36,9.83-1,10.21-.94a7.13,7.13,0,0,1,2,.28c1.63.3,3.47.28,4.87.9C110,9.39,114.27,14.9,116,17.6a54.13,54.13,0,0,1,3.93,7.79c.84,1.34,1,3.45,1.36,5,.64,1.16.21,3.86.36,5.32a30.3,30.3,0,0,1-.91,5.44C120,43,119,46.25,118.8,46.53c-1,1.84-3.14,6.89-5.15,8.14-1.46.91-6.54.2-7.35-1.1a2.32,2.32,0,0,1,.19-2ZM82.92,12.54l12.75-2,1.61-.26a66.14,66.14,0,0,0,7-1.24l.36-.1c-.38-.2-.82-.36-1.22-.61-2.16.47-4.37.85-6.61,1.19l-1.61.25L81.67,11.88a.84.84,0,0,0,.08.27,1.84,1.84,0,0,0,1,.46C82.77,12.57,82.86,12.58,82.92,12.54Zm30,39.34,2.39-.5.48-.85c-2.87.54-5.65,1-8.49,1.42a1.34,1.34,0,0,0-.12.88c1.85-.28,3.79-.55,5.74-.95ZM109.61,54l4.49-.8.72-1c-2.34.45-4.7.86-7,1.23a5.69,5.69,0,0,0,1.79.58Zm-25-43.34L95.85,8.91l1.62-.26c1.61-.25,3.28-.42,4.9-.8a13.26,13.26,0,0,0-1.47-.59c-1,.18-2,.36-2.92.45L81.85,10.27l-.15.85,1.31-.2Zm23.17,40.42c2.81-.5,5.62-1,8.46-1.47l.38-.74-8.39,1.3ZM82,9.48C86.78,8.7,91.47,8,96.18,7.27L97.8,7l1.76-.28,0-.05a6.74,6.74,0,0,0-1.7-.43l-1.46.22L82.27,8.64Zm.51-1.76c4.06-.66,8.12-1.31,12.15-1.9,0,0-.09,0-.11-.05a4.37,4.37,0,0,0-1.39-.2l-.27,0a3.58,3.58,0,0,1-1-.08L82.87,6.89a.29.29,0,0,0-.1.12Zm26.63,40.82-.45.78,8.33-1.26.38-.74Zm.74-1.77-.39.86c2.81-.37,5.59-.79,8.36-1.21l0-.08a3.92,3.92,0,0,0,.36-.91l-6.93,1.07ZM96,11.23l-7.5,1.24,2.22.18a.52.52,0,0,0,.4.24.06.06,0,0,0,.09,0l5-.8,1.65-.34c2.2-.25,4.45-.71,6.63-1.14a3.12,3.12,0,0,1,.75-.15,10.76,10.76,0,0,1,1.38-.36l-1-.68-1.19.25c-2.27.42-4.49.92-6.79,1.3Zm22.72,32.65-1.76.29-1.56.22c-1.52.26-3.07.48-4.66.78l-.32,0-.3.87,1.55-.22,6.78-1,.2-.63Zm-5.32-.68-1.55.22a6,6,0,0,0-.93.14l-.2.62,0,0-.07.29a1.21,1.21,0,0,1,.36-.1l3.17-.47,4.84-.77.29-.75-4.42.64Zm-.92-1.61-1.07.17a4.37,4.37,0,0,1-.25,1l.3-.06,1.55-.22,1.62-.25,5-.72.13-.33a3.87,3.87,0,0,0,.17-.67l-5.85.9ZM100.36,13.16l5.47-1,.77-.11,2.39-.36c-.34-.29-.75-.53-1.13-.86a12.63,12.63,0,0,1-1.37.23l-.66.17-.71.06-6.49,1.11-1.43.27c-1.17.17-2.3.38-3.44.58a3.46,3.46,0,0,1,.88.33,1,1,0,0,0,.41.12l.38.2,3.37-.54Zm13.28,26.73a15.06,15.06,0,0,1-1.52.26l-.54.09s0,.08,0,.13l-.06.59a.17.17,0,0,0,0,.17l.77-.11,1.62-.25,6.15-1,.12-.88Zm-1.79-1.38-.24,0v.94a13.24,13.24,0,0,0,1.38-.23l7.31-1.13a2,2,0,0,0,.12-.76l0-.08-7,1ZM100.66,13.65l-4.39.68,1.14.6c1.82-.33,3.55-.53,5.37-.73q4-.45,8-1a1.71,1.71,0,0,0-.43-.42l-.49-.38-7.67,1.1Zm13,23.85,6.87-1,0-.46,0-.3c-1,.13-2.06.22-3.13.39l-1.5.18c-1.43.27-2.92.32-4.32.51l0,1,.54-.09Zm-1.46-22.93a8.21,8.21,0,0,0-.89-.88l-12.51,2,.87.58,4.74-.65c2.57-.35,5.07-.54,7.7-1.06,0,0,.09,0,.09,0Zm8.36,20.31,0-.76-1.46.22L118,34.5c-2.15.35-4.26.6-6.44.9l.06.78,6.15-.84a14.6,14.6,0,0,1,1.52-.26A7.28,7.28,0,0,0,120.57,34.88ZM119,33.51a2.7,2.7,0,0,0,.63-.07,4.2,4.2,0,0,0,.62-.08l.39-.06,0-.76-1,.09-.72.07-.65,0-1.23.2c-1.88.23-3.76.6-5.67.91l.14.91,6.22-1Zm-17.55-16,11.88-1.79a6.55,6.55,0,0,0-.8-.87c-4,.62-8.06,1.28-12.09,1.86ZM118,31.09l-1.4.19L111,32.37a4.77,4.77,0,0,1,.23.92l5.35-.9,1.22-.2,1.43-.14,1.31-.2a2.27,2.27,0,0,0-.23-.92l-1,.05a1.88,1.88,0,0,1-.63.08ZM102,18.07l.8.75L114.19,17a3.8,3.8,0,0,0-.5-.69Zm15.64,11.54a13.07,13.07,0,0,1-1.4.18l-5.74,1,.3.88c1.65-.34,3.26-.6,4.93-.89l1.32-.2,3.1-.31L120,29.4l-.33,0Zm-2.46-11.26-.45-.72q-5.7,1-11.29,1.8a4.82,4.82,0,0,0,.65.77C107.77,19.64,111.45,19,115.16,18.35Zm1.44,9.9c-2.24.33-4.48.67-6.72,1.13a2.46,2.46,0,0,0,.33.67c2.24-.47,4.48-.8,6.75-1.09a7.5,7.5,0,0,1,1.25-.16c.57,0,1.07,0,1.61-.13l-.15-.78a16.29,16.29,0,0,1-1.85.16Zm-12-7.37.51.81,11-1.77c-.17-.27-.28-.58-.44-.85q-5.56,1-11,1.81Zm14,6.32a5.26,5.26,0,0,0,.89-.05l-.29-.88-.33,0c-2.77.42-5.5.93-8.24,1.27l-1.61.25a5.81,5.81,0,0,1,.47.89c2.69-.55,5.32-.94,8-1.33Zm-13.06-5,.09.13c.14.23.34.41.48.64l10.78-1.67a3.81,3.81,0,0,1-.42-.8c-3.65.65-7.29,1.17-10.93,1.7Zm4.27,5L111,27l6.57-1.1,1.31-.2a7.68,7.68,0,0,1-.32-.79l-1.1.12c-1.53.27-3,.53-4.57.66l-1.55.22-3.17.48a5.47,5.47,0,0,1,.53,1Zm-1.94-1.35c2.28-.42,4.53-1,6.73-1.26l3.64-.4-.33-.79-6.32.82c-1.4.19-2.79.54-4.16.78a4,4,0,0,1,.44.85ZM107,24.32l10.59-1.55c-.17-.27-.3-.63-.47-.89l-10.63,1.63Z"/></g></g><g id="Group_30" data-name="Group 30"><path id="Path_28-2" data-name="Path 28-2" class="cls-1" d="M135.59,57.69c.55-1.17,5.9-12.26,17-14.77a20.51,20.51,0,0,1,9.09,0c9.38,2.23,13.91,10.84,14.78,12.5,6.56,12.48,1.31,25.7,0,28.41-2,4.07-7.17,12.5-15.91,14.78a19.6,19.6,0,0,1-12.5-1.14C135.73,91.89,129,71.94,135.59,57.69Z"/><path id="Path_29-2" data-name="Path 29-2" class="cls-2" d="M147,113.38a17,17,0,0,1,2.27-7.95c1.42-2.4,3-3.65,6.82-6.82,0,0,3.76-3.16,8-6.82,5-4.34,11.7-14,10.23-25-1.39-10.45-9.34-16.4-10.23-17.05a22.42,22.42,0,0,0-12.51-4.55A21.93,21.93,0,0,0,139,48.6a23.3,23.3,0,0,0-8,9.09,24,24,0,0,0-3.41,11.36c-.13,5.17,1.66,8.93,3.41,12.5,4.27,8.7,10.62,13.86,15.35,17.62,5,3.94,6.8,4.26,10.22,6.82a7.48,7.48,0,0,0,2.28,1.13c1,.3,2.35.71,3.41,0a3.4,3.4,0,0,0,1.14-3.4,5,5,0,0,0-3.41-3.41c-4-1.32-10,2.17-12.5,5.68a8.35,8.35,0,0,1-2.27,2.28,6.61,6.61,0,0,1-4.55,1.13,3,3,0,0,1-2.27-1.13,3.1,3.1,0,0,1,0-2.28c.14-.56,1.14-2.27,5.68-3.41a45.66,45.66,0,0,1,6.82,0c.67.09,1.14,0,1.14,3.41,0,1.64,0,6.82,3.41,10.23"/><path id="Path_30-2" data-name="Path 30-2" class="cls-2" d="M150.94,103.72s-3.11,5.81-1.14,21.6c1.14,9.09,6.76,18.48,4.55,29.55-5.69,28.41-1.14,29.55-1.14,35.23"/><g id="Group_28-2" data-name="Group 28-2"><path id="Path_31-2" data-name="Path 31-2" class="cls-3" d="M167.25,78a29.91,29.91,0,0,0,1.56-4.89l0,0c.25-2.6.28-6.44-1.33-9-.66-1.25-1.38-2.5-2.12-3.7-.36-.56-.82-1.1-1.26-1.7-1.75-2.82-5.12-4.83-7.82-5.86l0,0-.32-.12-.44-.1-.37-.09-.43-.1a23.21,23.21,0,0,0-3.63-.32l-2.79.13a1.74,1.74,0,0,1-1.38-.52c-.5-.8.66-4,.75-4.3a2.64,2.64,0,0,1,.92-.93c1.61-1,7.25-.75,7.54-.7a5.07,5.07,0,0,1,1.44.21,17,17,0,0,1,3.59.67c7.29,2.6,10.44,6.66,11.68,8.65a40.21,40.21,0,0,1,2.9,5.75,13.24,13.24,0,0,1,1,3.71c.47.85.16,2.85.27,3.93a22.69,22.69,0,0,1-.67,4c-.49,1.32-1.28,3.75-1.4,4-.78,1.35-2.32,5.08-3.8,6-1.08.67-4.83.15-5.43-.81a1.69,1.69,0,0,1,.14-1.47ZM148.51,51.66l9.41-1.49,1.19-.19a50.37,50.37,0,0,0,5.17-.91l.26-.08a9.43,9.43,0,0,1-.9-.45c-1.59.35-3.22.63-4.87.88l-1.19.19-10,1.57a.6.6,0,0,0,.06.19,1.28,1.28,0,0,0,.71.34S148.47,51.69,148.51,51.66Zm22.15,29,1.77-.37.35-.63c-2.12.4-4.17.71-6.26,1a.92.92,0,0,0-.09.65c1.36-.21,2.79-.41,4.23-.7Zm-2.45,1.57,3.31-.59.53-.75c-1.72.34-3.46.64-5.16.92A4.42,4.42,0,0,0,168.21,82.27Zm-18.44-32,8.29-1.3,1.19-.19c1.19-.19,2.42-.31,3.61-.6a10.12,10.12,0,0,0-1.08-.43c-.73.13-1.45.26-2.16.33L147.72,50l-.11.62,1-.14Zm17.1,29.83c2.07-.37,4.15-.74,6.24-1.08l.28-.54-6.19,1Zm-19-30.71c3.51-.57,7-1.12,10.45-1.63l1.19-.19,1.3-.21,0,0a5.07,5.07,0,0,0-1.26-.32l-1.08.16L148,48.78Zm.38-1.29c3-.49,6-1,9-1.4,0,0-.07,0-.09,0a3.22,3.22,0,0,0-1-.14l-.2,0a2.18,2.18,0,0,1-.72-.06l-6.7,1a.16.16,0,0,0-.07.09Zm19.65,30.13-.33.57,6.15-.93.28-.54Zm.55-1.31-.29.64c2.08-.28,4.12-.59,6.17-.9l0-.06a2.34,2.34,0,0,0,.26-.68l-5.11.8ZM158.19,50.7l-5.53.91,1.63.13a.36.36,0,0,0,.3.18s0,0,.07,0l3.68-.59,1.22-.25c1.63-.19,3.28-.53,4.9-.84a2,2,0,0,1,.55-.12,7.13,7.13,0,0,1,1-.26l-.74-.5-.89.18c-1.67.31-3.31.68-5,1ZM175,74.8l-1.3.21-1.14.16c-1.13.19-2.27.36-3.44.58h-.24l-.22.65,1.14-.17,5-.76.15-.46ZM171,74.3l-1.15.16a3.85,3.85,0,0,0-.68.1l-.15.46,0,0-.05.21a.77.77,0,0,1,.26-.07l2.34-.35,3.57-.57.22-.55-3.26.47Zm-.68-1.19-.79.12a2.92,2.92,0,0,1-.18.72l.22,0,1.14-.16,1.19-.19,3.66-.53.1-.25a3.92,3.92,0,0,0,.13-.49L171.5,73Zm-9-21,4-.72.57-.08,1.76-.27c-.25-.21-.55-.39-.83-.64a8.92,8.92,0,0,1-1,.18l-.49.11-.53.06-4.78.81-1.06.2c-.86.13-1.7.28-2.54.43a2.41,2.41,0,0,1,.65.24.8.8,0,0,0,.3.09l.28.15,2.49-.4Zm9.8,19.73a9.68,9.68,0,0,1-1.12.19l-.4.07s0,.06,0,.09l0,.44a.13.13,0,0,0,0,.13l.57-.08,1.19-.19,4.54-.71.09-.66Zm-1.32-1-.17,0v.69a8.51,8.51,0,0,0,1-.17l5.4-.83a1.77,1.77,0,0,0,.09-.56l0-.06-5.15.72Zm-8.25-18.35-3.24.5.84.45c1.34-.24,2.62-.39,4-.54q3-.33,5.88-.76a1.34,1.34,0,0,0-.32-.31l-.36-.28-5.66.81Zm9.6,17.6,5.07-.76,0-.34v-.23c-.75.1-1.52.17-2.32.29l-1.1.13c-1,.2-2.15.24-3.19.38l0,.76.4-.06Zm-1.08-16.92a5.79,5.79,0,0,0-.66-.65L160.24,54l.64.43,3.5-.47c1.89-.26,3.74-.4,5.68-.78C170.08,53.19,170.13,53.16,170.13,53.16Zm6.17,15,0-.56-1.08.16-.86.12c-1.59.26-3.15.45-4.76.67l0,.57,4.53-.62a10.24,10.24,0,0,1,1.13-.19,8.13,8.13,0,0,0,1-.15Zm-1.19-1a1.82,1.82,0,0,0,.46-.06,2.31,2.31,0,0,0,.46,0l.29,0,0-.57-.77.07-.53,0-.48,0-.9.15c-1.39.18-2.78.44-4.19.68l.11.67,4.58-.74Zm-13-11.79L170.93,54a5.15,5.15,0,0,0-.59-.64c-3,.45-6,.94-8.93,1.37Zm12.27,10-1,.14-4.17.8a3.67,3.67,0,0,1,.18.67l3.94-.66.9-.15,1.06-.1,1-.15a2,2,0,0,0-.18-.67l-.72,0a1.22,1.22,0,0,1-.46.06Zm-11.85-9.62.59.56,8.43-1.38a2.64,2.64,0,0,0-.38-.5Zm11.54,8.52a9.09,9.09,0,0,1-1,.14l-4.24.7.22.65c1.21-.25,2.4-.44,3.64-.66l1-.14,2.28-.23-.13-.61-.24,0ZM172.3,56l-.33-.53q-4.2.77-8.33,1.33a3.72,3.72,0,0,0,.48.57c2.73-.42,5.45-.86,8.18-1.37Zm1.07,7.3c-1.65.25-3.31.5-5,.84a1.86,1.86,0,0,0,.24.49c1.66-.34,3.31-.59,5-.8a4.92,4.92,0,0,1,.93-.11c.42,0,.79,0,1.19-.1l-.11-.58a10.54,10.54,0,0,1-1.37.11Zm-8.87-5.43.37.6L173,57.11c-.12-.2-.2-.43-.32-.63-2.74.51-5.46,1-8.14,1.34Zm10.32,4.67a3.67,3.67,0,0,0,.66-.05l-.22-.64H175c-2.05.31-4.06.69-6.08.94l-1.19.18a5.19,5.19,0,0,1,.35.66c2-.41,3.92-.7,5.86-1Zm-9.64-3.67.07.1c.1.17.25.3.35.47l8-1.23a2.55,2.55,0,0,1-.31-.59c-2.69.48-5.38.87-8.07,1.25Zm3.16,3.66.9-.15,4.85-.82,1-.14a3.32,3.32,0,0,1-.24-.59l-.82.1c-1.12.2-2.25.39-3.37.48l-1.15.17-2.33.35a5,5,0,0,1,.39.72Zm-1.44-1c1.68-.31,3.34-.75,5-.93l2.68-.29-.24-.58-4.67.6c-1,.14-2,.4-3.06.58a3.34,3.34,0,0,1,.33.62Zm-.63-1.13,7.82-1.14c-.13-.2-.23-.46-.35-.66l-7.85,1.2Z"/></g></g><g id="Group_31" data-name="Group 31"><path id="Path_28-3" data-name="Path 28-3" class="cls-1" d="M8.59,57.69c.55-1.17,5.9-12.26,17.05-14.77a20.51,20.51,0,0,1,9.09,0c9.38,2.23,13.91,10.84,14.78,12.5,6.56,12.48,1.31,25.7,0,28.41-2,4.07-7.17,12.5-15.91,14.78a19.6,19.6,0,0,1-12.5-1.14C8.73,91.89,2,71.94,8.59,57.69Z"/><path id="Path_29-3" data-name="Path 29-3" class="cls-2" d="M20,113.38a17,17,0,0,1,2.27-7.95c1.42-2.4,3-3.65,6.82-6.82,0,0,3.76-3.16,8-6.82,5-4.34,11.7-14,10.23-25C45.85,56.34,37.9,50.39,37,49.74A22.42,22.42,0,0,0,24.5,45.19,21.93,21.93,0,0,0,12,48.6a23.3,23.3,0,0,0-8,9.09A24,24,0,0,0,.63,69.05C.5,74.22,2.29,78,4,81.55c4.27,8.7,10.62,13.86,15.35,17.62,5,3.94,6.8,4.26,10.22,6.82a7.48,7.48,0,0,0,2.28,1.13c1,.3,2.35.71,3.41,0a3.4,3.4,0,0,0,1.14-3.4A5,5,0,0,0,33,100.31c-4-1.32-10,2.17-12.5,5.68a8.35,8.35,0,0,1-2.27,2.28,6.61,6.61,0,0,1-4.55,1.13,3,3,0,0,1-2.27-1.13,3.1,3.1,0,0,1,0-2.28c.14-.56,1.14-2.27,5.68-3.41a45.66,45.66,0,0,1,6.82,0c.67.09,1.14,0,1.14,3.41,0,1.64,0,6.82,3.41,10.23"/><path id="Path_30-3" data-name="Path 30-3" class="cls-2" d="M23.94,103.72s-3.11,5.81-1.14,21.6c1.14,9.09,6.76,18.48,4.55,29.55-5.69,28.41-1.14,29.55-1.14,35.23"/><g id="Group_28-3" data-name="Group 28-3"><path id="Path_31-3" data-name="Path 31-3" class="cls-3" d="M40.25,78a29.91,29.91,0,0,0,1.56-4.89l0,0c.25-2.6.28-6.44-1.33-9-.66-1.25-1.38-2.5-2.12-3.7-.36-.56-.82-1.1-1.26-1.7-1.75-2.82-5.12-4.83-7.82-5.86l0,0L29,52.79l-.44-.1-.37-.09-.43-.1a23.21,23.21,0,0,0-3.63-.32l-2.79.13A1.74,1.74,0,0,1,20,51.79c-.5-.8.66-4,.75-4.3a2.64,2.64,0,0,1,.92-.93c1.61-1,7.25-.75,7.54-.7a5.07,5.07,0,0,1,1.44.21,17,17,0,0,1,3.59.67c7.29,2.6,10.44,6.66,11.68,8.65a40.21,40.21,0,0,1,2.9,5.75,13.24,13.24,0,0,1,1,3.71c.47.85.16,2.85.27,3.93a22.69,22.69,0,0,1-.67,4c-.49,1.32-1.28,3.75-1.4,4-.78,1.35-2.32,5.08-3.8,6-1.08.67-4.83.15-5.43-.81a1.69,1.69,0,0,1,.14-1.47ZM21.51,51.66l9.41-1.49L32.11,50a50.37,50.37,0,0,0,5.17-.91l.26-.08a9.43,9.43,0,0,1-.9-.45c-1.59.35-3.22.63-4.87.88l-1.19.19-10,1.57a.6.6,0,0,0,.06.19,1.28,1.28,0,0,0,.71.34S21.47,51.69,21.51,51.66Zm22.15,29,1.77-.37.35-.63c-2.12.4-4.17.71-6.26,1a.92.92,0,0,0-.09.65c1.36-.21,2.79-.41,4.23-.7Zm-2.45,1.57,3.31-.59.53-.75c-1.72.34-3.46.64-5.16.92A4.42,4.42,0,0,0,41.21,82.27Zm-18.44-32L31.06,49l1.19-.19c1.19-.19,2.42-.31,3.61-.6a10.12,10.12,0,0,0-1.08-.43c-.73.13-1.45.26-2.16.33L20.72,50l-.11.62,1-.14Zm17.1,29.83c2.07-.37,4.15-.74,6.24-1.08l.28-.54-6.19,1Zm-19-30.71c3.51-.57,7-1.12,10.45-1.63l1.19-.19,1.3-.21,0,0A5.07,5.07,0,0,0,32.51,47l-1.08.16L21,48.78Zm.38-1.29c3-.49,6-1,9-1.4,0,0-.07,0-.09,0a3.22,3.22,0,0,0-1-.14l-.2,0a2.18,2.18,0,0,1-.72-.06l-6.7,1a.16.16,0,0,0-.07.09ZM40.88,78.24l-.33.57,6.15-.93.28-.54Zm.55-1.31-.29.64c2.08-.28,4.12-.59,6.17-.9l0-.06a2.34,2.34,0,0,0,.26-.68l-5.11.8ZM31.19,50.7l-5.53.91,1.63.13a.36.36,0,0,0,.3.18s0,0,.07,0l3.68-.59,1.22-.25c1.63-.19,3.28-.53,4.9-.84a2,2,0,0,1,.55-.12,7.13,7.13,0,0,1,1-.26l-.74-.5-.89.18c-1.67.31-3.31.68-5,1ZM48,74.8l-1.3.21-1.14.16c-1.13.19-2.27.36-3.44.58h-.24l-.22.65,1.14-.17,5-.76L47.9,75ZM44,74.3l-1.15.16a3.85,3.85,0,0,0-.68.1l-.15.46,0,0L42,75.2a.77.77,0,0,1,.26-.07l2.34-.35,3.57-.57.22-.55-3.26.47Zm-.68-1.19-.79.12a2.92,2.92,0,0,1-.18.72l.22,0,1.14-.16,1.19-.19L48.59,73l.1-.25a3.92,3.92,0,0,0,.13-.49L44.5,73Zm-9-21,4-.72.57-.08,1.76-.27c-.25-.21-.55-.39-.83-.64a8.92,8.92,0,0,1-1,.18l-.49.11-.53.06-4.78.81-1.06.2c-.86.13-1.7.28-2.54.43a2.41,2.41,0,0,1,.65.24.8.8,0,0,0,.3.09l.28.15,2.49-.4Zm9.8,19.73a9.68,9.68,0,0,1-1.12.19l-.4.07s0,.06,0,.09l0,.44a.13.13,0,0,0,0,.13l.57-.08,1.19-.19,4.54-.71.09-.66Zm-1.32-1-.17,0v.69a8.51,8.51,0,0,0,1-.17l5.4-.83a1.77,1.77,0,0,0,.09-.56l0-.06-5.15.72ZM34.61,52.48l-3.24.5.84.45c1.34-.24,2.62-.39,4-.54q3-.33,5.88-.76a1.34,1.34,0,0,0-.32-.31l-.36-.28-5.66.81Zm9.6,17.6,5.07-.76,0-.34v-.23c-.75.1-1.52.17-2.32.29l-1.1.13c-1.05.2-2.15.24-3.19.38l0,.76.4-.06ZM43.13,53.16a5.79,5.79,0,0,0-.66-.65L33.24,54l.64.43,3.5-.47c1.89-.26,3.74-.4,5.68-.78C43.08,53.19,43.13,53.16,43.13,53.16Zm6.17,15,0-.56-1.08.16-.86.12c-1.59.26-3.15.45-4.76.67l.05.57,4.53-.62a10.24,10.24,0,0,1,1.13-.19,8.13,8.13,0,0,0,1-.15Zm-1.19-1a1.82,1.82,0,0,0,.46-.06A2.31,2.31,0,0,0,49,67l.29,0,0-.57-.77.07-.53,0-.48,0-.9.15c-1.39.18-2.78.44-4.19.68l.11.67,4.58-.74Zm-13-11.79L43.93,54a5.15,5.15,0,0,0-.59-.64c-3,.45-6,.94-8.93,1.37Zm12.27,10-1,.14-4.17.8a3.67,3.67,0,0,1,.18.67l3.94-.66.9-.15,1.06-.1,1-.15a2,2,0,0,0-.18-.67l-.72,0a1.22,1.22,0,0,1-.46.06ZM35.58,55.74l.59.56,8.43-1.38a2.64,2.64,0,0,0-.38-.5Zm11.54,8.52a9.09,9.09,0,0,1-1,.14l-4.24.7.22.65c1.21-.25,2.4-.44,3.64-.66l1-.14L49,64.72l-.13-.61-.24,0ZM45.3,56,45,55.42q-4.2.77-8.33,1.33a3.72,3.72,0,0,0,.48.57c2.73-.42,5.45-.86,8.18-1.37Zm1.07,7.3c-1.65.25-3.31.5-5,.84a1.86,1.86,0,0,0,.24.49c1.66-.34,3.31-.59,5-.8a4.92,4.92,0,0,1,.93-.11c.42,0,.79,0,1.19-.1L48.64,63a10.54,10.54,0,0,1-1.37.11ZM37.5,57.82l.37.6L46,57.11c-.12-.2-.2-.43-.32-.63-2.74.51-5.46,1-8.14,1.34Zm10.32,4.67a3.67,3.67,0,0,0,.66-.05l-.22-.64H48c-2.05.31-4.06.69-6.08.94l-1.19.18a5.19,5.19,0,0,1,.35.66c2-.41,3.92-.7,5.86-1Zm-9.64-3.67.07.1c.1.17.25.3.35.47l8-1.23a2.55,2.55,0,0,1-.31-.59c-2.69.48-5.38.87-8.07,1.25Zm3.16,3.66.9-.15,4.85-.82,1-.14a3.32,3.32,0,0,1-.24-.59l-.82.1c-1.12.2-2.25.39-3.37.48l-1.15.17-2.33.35a5,5,0,0,1,.39.72Zm-1.44-1c1.68-.31,3.34-.75,5-.93l2.68-.29-.24-.58-4.67.6c-1,.14-2,.4-3.06.58a3.34,3.34,0,0,1,.33.62Zm-.63-1.13,7.82-1.14c-.13-.2-.23-.46-.35-.66l-7.85,1.2Z"/></g></g></g></g></svg>