<svg xmlns="http://www.w3.org/2000/svg" viewBox="0 0 43.51 43.51"><defs><style>.cls-1{fill:#e31e24;}</style></defs><g id="Layer_2" data-name="Layer 2"><g id="Layer_1-2" data-name="Layer 1"><path id="facebook-square-brands" class="cls-1" d="M38.85,0H4.66A4.66,4.66,0,0,0,0,4.66V38.85a4.66,4.66,0,0,0,4.66,4.66H18V28.72H11.87v-7H18V16.45c0-6,3.6-9.37,9.1-9.37a36,36,0,0,1,5.39.47v5.92h-3c-3,0-3.92,1.86-3.92,3.77v4.52H32.2l-1.07,7H25.52V43.51H38.85a4.66,4.66,0,0,0,4.66-4.66h0V4.66A4.66,4.66,0,0,0,38.85,0Z"/></g></g></svg>