<svg xmlns="http://www.w3.org/2000/svg" viewBox="0 0 66.39 69.6"><defs><style>.cls-1{fill:#deb841;}</style></defs><g id="Layer_2" data-name="Layer 2"><g id="Layer_1-2" data-name="Layer 1"><path id="facebook-square-brands" class="cls-1" d="M59.27,0H7.11A7.3,7.3,0,0,0,0,7.46V62.14A7.29,7.29,0,0,0,7.11,69.6H27.45V45.94H18.12V34.8h9.33V26.31c0-9.65,5.49-15,13.88-15a54,54,0,0,1,8.23.75v9.48H44.92c-4.56,0-6,3-6,6V34.8h10.2L47.5,45.94H38.93V69.6H59.27a7.3,7.3,0,0,0,7.12-7.46h0V7.46A7.3,7.3,0,0,0,59.27,0Z"/></g></g></svg>