<svg xmlns="http://www.w3.org/2000/svg" viewBox="0 0 43.51 43.51"><defs><style>.cls-1{fill:#e31e24;}</style></defs><g id="Layer_2" data-name="Layer 2"><g id="Layer_1-2" data-name="Layer 1"><path id="instagram-square-brands" class="cls-1" d="M21.76,16.58a5.18,5.18,0,1,0,5.18,5.18,5.17,5.17,0,0,0-5.18-5.18Zm12.11-4a5.24,5.24,0,0,0-3-2.95C28.87,8.83,24,9,21.75,9s-7.11-.19-9.16.62a5.22,5.22,0,0,0-2.95,2.95c-.8,2-.62,6.9-.62,9.17s-.18,7.11.62,9.16a5.27,5.27,0,0,0,3,2.95c2,.81,6.9.63,9.16.63s7.11.18,9.16-.63a5.22,5.22,0,0,0,2.95-2.95c.81-2,.63-6.9.63-9.16s.18-7.12-.63-9.17ZM21.76,29.72a8,8,0,1,1,5.63-2.33A8,8,0,0,1,21.76,29.72Zm8.29-14.4a1.85,1.85,0,1,1,1.86-1.84,1.91,1.91,0,0,1-.54,1.3A1.87,1.87,0,0,1,30.05,15.32ZM38.85,0H4.66A4.66,4.66,0,0,0,0,4.66V38.85a4.66,4.66,0,0,0,4.66,4.66H38.85a4.66,4.66,0,0,0,4.66-4.66h0V4.66A4.66,4.66,0,0,0,38.85,0ZM37.19,28.17a9.26,9.26,0,0,1-2.51,6.5,9.21,9.21,0,0,1-6.51,2.51c-2.57.15-10.26.15-12.82,0a9.21,9.21,0,0,1-6.51-2.51,9.17,9.17,0,0,1-2.51-6.5c-.15-2.57-.15-10.26,0-12.82A9.2,9.2,0,0,1,8.84,8.84a9.25,9.25,0,0,1,6.51-2.5c2.56-.15,10.25-.15,12.82,0a9.22,9.22,0,0,1,6.5,2.51,9.27,9.27,0,0,1,2.52,6.51C37.33,17.91,37.33,25.6,37.19,28.17Z"/></g></g></svg>