<svg xmlns="http://www.w3.org/2000/svg" viewBox="0 0 66.39 69.6"><defs><style>.cls-1{fill:#deb841;}</style></defs><g id="Layer_2" data-name="Layer 2"><g id="Layer_1-2" data-name="Layer 1"><path id="instagram-square-brands" class="cls-1" d="M33.19,26.51a7.92,7.92,0,1,0,7.92,7.91,7.92,7.92,0,0,0-7.92-7.91Zm18.48-6.37a8.16,8.16,0,0,0-4.51-4.72c-3.11-1.29-10.52-1-14-1s-10.85-.3-14,1a8.19,8.19,0,0,0-4.51,4.72c-1.22,3.27-1,11-1,14.66s-.27,11.38,1,14.66a8.17,8.17,0,0,0,4.5,4.72c3.12,1.29,10.53,1,14,1s10.85.3,14-1a8.22,8.22,0,0,0,4.51-4.72c1.24-3.27,1-11,1-14.66s.29-11.38-1-14.66ZM33.19,47.54c-6.7,0-12.13-5.71-12.12-12.74s5.45-12.71,12.15-12.71,12.13,5.72,12.12,12.74a13,13,0,0,1-3.55,9,11.92,11.92,0,0,1-8.6,3.74Zm12.65-23a3,3,0,1,1,2.83-3.09.71.71,0,0,1,0,.14,3,3,0,0,1-.83,2.08,2.78,2.78,0,0,1-2,.87ZM59.27,0H7.11A7.3,7.3,0,0,0,0,7.46V62.14A7.29,7.29,0,0,0,7.11,69.6H59.27a7.29,7.29,0,0,0,7.12-7.46h0V7.46A7.3,7.3,0,0,0,59.27,0ZM56.73,45.06A15.17,15.17,0,0,1,52.9,55.47a13.76,13.76,0,0,1-9.93,4c-3.91.23-15.64.23-19.56,0a13.75,13.75,0,0,1-9.92-4A15.17,15.17,0,0,1,9.65,45.06c-.22-4.11-.22-16.41,0-20.51a15.2,15.2,0,0,1,3.83-10.41,13.82,13.82,0,0,1,9.93-4c3.92-.23,15.65-.23,19.56,0a13.81,13.81,0,0,1,9.93,4,15.25,15.25,0,0,1,3.83,10.42c.22,4.07.22,16.37,0,20.48Z"/></g></g></svg>