<svg xmlns="http://www.w3.org/2000/svg" viewBox="0 0 49.01 43"><defs><style>.cls-1{fill:#e31e24;}</style></defs><g id="Layer_2" data-name="Layer 2"><g id="Layer_1-2" data-name="Layer 1"><g id="Layer_2-2" data-name="Layer 2"><g id="Layer_2-2-2" data-name="Layer 2-2"><path id="Path_11" data-name="Path 11" class="cls-1" d="M0,3.34A3.65,3.65,0,0,1,3.72,0H45.4a3.51,3.51,0,0,1,0,7H3.49A3.51,3.51,0,0,1,0,3.34ZM3.72,25A3.65,3.65,0,0,1,0,21.66,3.51,3.51,0,0,1,3.49,18H45.4a3.51,3.51,0,0,1,0,7ZM45.51,43H3.74A3.66,3.66,0,0,1,0,39.66,3.5,3.5,0,0,1,3.51,36H45.28A3.66,3.66,0,0,1,49,39.34,3.5,3.5,0,0,1,45.51,43Z"/></g></g></g></g></svg>