<svg xmlns="http://www.w3.org/2000/svg" viewBox="0 0 52.37 149.88"><defs><style>.cls-1{fill:#deb841;}.cls-2{fill:none;stroke:#000;stroke-miterlimit:10;}</style></defs><g id="Layer_2" data-name="Layer 2"><g id="Layer_1-2" data-name="Layer 1"><g id="Layer_1-2-2" data-name="Layer 1-2"><path id="Path_28-2" data-name="Path 28-2" class="cls-1" d="M7.57,15.51c.56-1.18,6-12.47,17.3-15a20.84,20.84,0,0,1,9.23,0c9.52,2.26,14.11,11,15,12.67,6.65,12.67,1.33,26.08,0,28.83-2,4.13-7.28,12.69-16.15,15a19.88,19.88,0,0,1-12.68-1.15C7.71,50.21.85,30,7.57,15.51Z"/><path id="Path_29-2" data-name="Path 29-2" class="cls-2" d="M20.12,73.07A17.19,17.19,0,0,1,22.45,65c1.44-2.43,3-3.71,6.92-6.92,0,0,3.81-3.2,8.12-6.92C42.56,46.7,49.36,36.9,47.87,25.74,46.4,15.15,38.33,9.13,37.43,8.45a22.85,22.85,0,0,0-12.7-4.61A22.2,22.2,0,0,0,12.05,7.3a23.46,23.46,0,0,0-8.12,9.22A24.33,24.33,0,0,0,.51,28.05C.37,33.3,2.15,37.11,4,40.74,8.3,49.56,14.74,54.8,19.55,58.62c5.07,4.06,6.9,4.32,10.37,6.92a7.69,7.69,0,0,0,2.31,1.15c1,.31,2.39.72,3.46,0a3.47,3.47,0,0,0,1.16-3.46,5.1,5.1,0,0,0-3.46-3.46C29.33,58.43,23.24,62,20.7,65.55a8.43,8.43,0,0,1-2.31,2.3A6.79,6.79,0,0,1,13.78,69a3.05,3.05,0,0,1-2.3-1.16,3.05,3.05,0,0,1,0-2.3c.14-.57,1.76-3.1,5.76-3.46a42.08,42.08,0,0,1,6.92,0c.68.09,1.16,0,1.16,3.46,0,1.65,0,6.92,3.46,10.38"/><path id="Path_30-2" data-name="Path 30-2" class="cls-2" d="M24.16,62.22S21,68.12,23,84.14c1.15,9.22,6.86,18.75,4.61,30-5.77,28.83-1.11,30-1.11,35.75"/></g></g></g></svg>